<?xml version="1.0" encoding="UTF-8"?>
<svg width="35px" height="35px" viewBox="0 0 35 35" version="1.1" xmlns="http://www.w3.org/2000/svg" xmlns:xlink="http://www.w3.org/1999/xlink">
    <!-- Generator: Sketch 43.2 (39069) - http://www.bohemiancoding.com/sketch -->
    <title>Artboard</title>
    <desc>Created with Sketch.</desc>
    <defs></defs>
    <g id="Page-1" stroke="none" stroke-width="1" fill="none" fill-rule="evenodd">
        <path d="M17.5,35 C7.83501688,35 0,27.1649831 0,17.5 C0,7.83501688 7.83501688,0 17.5,0 C27.1649831,0 35,7.83501688 35,17.5 C35,27.1649831 27.1649831,35 17.5,35 Z M17.5,29 C23.8512746,29 29,23.8512746 29,17.5 C29,11.1487254 23.8512746,6 17.5,6 C11.1487254,6 6,11.1487254 6,17.5 C6,23.8512746 11.1487254,29 17.5,29 Z" id="Combined-Shape" fill="#006E9A" opacity="0.354846014"></path>
        <path d="M34.9929945,17 C34.732987,7.73233544 27.2676646,0.267012955 18,0.00700546058 L18,6.01067419 C23.9535264,6.26536039 28.7346396,11.0464736 28.9893258,17 L34.9929945,17 Z" id="Combined-Shape" fill="#006E9A"></path>
        <g id="Artboard"></g>
    </g>
</svg>